<svg width="55" height="58" viewBox="0 0 55 58" fill="none" xmlns="http://www.w3.org/2000/svg">
<path d="M38.9473 19.5479L38.3588 17.5054C37.6113 15.1851 35.2216 13.9433 33.0214 14.7316C31.7837 15.1751 30.8116 16.2001 30.3911 17.5054L29.8026 19.5479C29.3074 21.2705 29.2035 23.0919 29.4992 24.8646C29.7689 26.3571 30.6675 27.6394 31.9412 28.3494L31.2821 43.8867C31.1939 44.7539 31.4606 45.6197 32.0155 46.2666C33.2086 47.6429 35.234 47.7386 36.5391 46.4804C36.6097 46.4123 36.6773 46.341 36.7418 46.2666C37.2842 45.638 37.5505 44.7976 37.4751 43.9514L36.8124 28.3475C38.0844 27.6371 38.9814 26.3557 39.2507 24.8646C39.5465 23.0919 39.4425 21.2705 38.9473 19.5479ZM37.4449 24.5282C37.2464 25.6005 36.5218 26.4803 35.5428 26.8376C35.1712 26.9849 34.9318 27.3677 34.9497 27.7859L35.6464 44.1042C35.6785 44.4243 35.5783 44.7434 35.3714 44.98C34.8194 45.5562 33.9305 45.5562 33.3785 44.98C33.1613 44.7243 33.0626 44.3801 33.109 44.0404L33.8002 27.7859C33.8181 27.3677 33.5787 26.9849 33.2071 26.8376C32.2281 26.4803 31.5035 25.6005 31.305 24.5282C31.0598 23.0565 31.1462 21.5445 31.5571 20.1144L32.1456 18.0709C32.601 16.7725 33.9682 16.1093 35.1995 16.5895C35.8505 16.8433 36.3636 17.3845 36.6043 18.0709L37.1928 20.1144C37.6032 21.5446 37.6896 23.0565 37.4449 24.5282Z" fill="#4A6BFF"/>
<path d="M24.75 14.5C24.2438 14.5 23.8333 14.9328 23.8333 15.4667V23.7665L21.3519 26.3832C21.1684 26.5761 21.0707 26.842 21.0833 27.115L21.8854 44.0317C21.9046 44.3965 21.779 44.7533 21.5389 45.0167C21.0372 45.5505 20.22 45.5544 19.7136 45.0252C19.7109 45.0224 19.7082 45.0195 19.7056 45.0167C19.4654 44.7533 19.34 44.3965 19.3591 44.0317L20.1667 27.115C20.1795 26.8422 20.0822 26.5763 19.899 26.3832L17.4167 23.7665V15.4667C17.4167 14.9328 17.0062 14.5 16.5 14.5C15.9938 14.5 15.5833 14.9328 15.5833 15.4667V24.1667C15.5833 24.4231 15.6801 24.6689 15.8519 24.8501L18.3141 27.4475L17.5322 43.9379C17.449 45.7392 18.7662 47.2706 20.4743 47.3583C22.1824 47.4461 23.6347 46.057 23.7178 44.2557C23.7228 44.1498 23.7228 44.0439 23.7178 43.938L22.9359 27.4477L25.3981 24.8502C25.57 24.669 25.6667 24.4232 25.6667 24.1668V15.4668C25.6667 14.9328 25.2562 14.5 24.75 14.5Z" fill="#4A6BFF"/>
<path d="M19.25 14.5C18.7438 14.5 18.3333 14.9328 18.3333 15.4667V23.2C18.3333 23.7338 18.7438 24.1667 19.25 24.1667C19.7562 24.1667 20.1667 23.7338 20.1667 23.2V15.4667C20.1667 14.9328 19.7562 14.5 19.25 14.5Z" fill="#4A6BFF"/>
<path d="M22 14.5C21.4938 14.5 21.0833 14.9328 21.0833 15.4667V23.2C21.0833 23.7338 21.4938 24.1667 22 24.1667C22.5062 24.1667 22.9167 23.7338 22.9167 23.2V15.4667C22.9167 14.9328 22.5062 14.5 22 14.5Z" fill="#4A6BFF"/>
<path d="M27.5 0C12.3122 0 0 12.9838 0 29C0 45.0162 12.3122 58 27.5 58C42.6878 58 55 45.0162 55 29C54.9828 12.9913 42.6807 0.018125 27.5 0ZM27.5 56.0667C13.3247 56.0667 1.83333 43.9485 1.83333 29C1.83333 14.0515 13.3247 1.93333 27.5 1.93333C41.6753 1.93333 53.1667 14.0515 53.1667 29C53.1505 43.9414 41.6686 56.0496 27.5 56.0667Z" fill="#4A6BFF"/>
<path d="M30.4756 47.1458C30.4265 46.6145 29.9781 46.2257 29.4742 46.2776C29.4624 46.2788 29.4506 46.2802 29.4388 46.2819L29.4424 46.281C28.1519 46.439 26.8482 46.439 25.5576 46.281C25.0546 46.2187 24.5991 46.5983 24.5401 47.1287C24.4811 47.6592 24.841 48.1395 25.344 48.2017C26.7753 48.378 28.2211 48.378 29.6524 48.2017C30.1562 48.15 30.5248 47.6772 30.4756 47.1458Z" fill="#4A6BFF"/>
<path d="M41.525 16.5435C41.1997 16.1345 40.6215 16.081 40.2336 16.4242C40.2323 16.4252 40.2311 16.4265 40.2297 16.4275C39.8428 16.7717 39.7935 17.3814 40.1197 17.7896C45.6466 24.7085 45.2238 34.9393 39.1471 41.325C38.7885 41.7019 38.7875 42.3142 39.1448 42.6924C39.5022 43.0706 40.0828 43.0717 40.4415 42.6948C47.1947 35.6003 47.6656 24.232 41.525 16.5435Z" fill="#4A6BFF"/>
<path d="M21.3575 12.7774C21.3569 12.7774 21.3563 12.7773 21.3557 12.7773C21.3548 12.7773 21.3539 12.7774 21.3529 12.7774H21.3575Z" fill="#4A6BFF"/>
<path d="M31.8239 10.207C28.2415 9.30161 24.4843 9.54497 21.0338 10.9059C20.5599 11.0938 20.3203 11.6513 20.4985 12.151C20.6328 12.5276 20.9743 12.7769 21.3557 12.7773C21.4654 12.7767 21.574 12.7555 21.6764 12.7145C24.7837 11.4892 28.1671 11.2703 31.3931 12.0862C31.8852 12.2116 32.3806 11.8928 32.4995 11.3738C32.6185 10.8548 32.3161 10.3324 31.8239 10.207Z" fill="#4A6BFF"/>
<path d="M15.8116 41.2767C12.7214 38.0235 10.9895 33.6047 11 29C10.9909 25.3211 12.096 21.7353 14.1543 18.765C14.4585 18.3382 14.377 17.7322 13.9723 17.4114C13.5676 17.0906 12.993 17.1765 12.6887 17.6033C12.6833 17.6109 12.6781 17.6185 12.6729 17.6262C7.37309 25.3098 8.15295 35.9154 14.5127 42.6455C14.8711 43.0237 15.4525 43.0239 15.8111 42.646C16.1698 42.268 16.17 41.6549 15.8116 41.2767Z" fill="#4A6BFF"/>
</svg>
