<svg width="71" height="71" viewBox="0 0 71 71" fill="none" xmlns="http://www.w3.org/2000/svg">
<path d="M71 48.5329C71 45.8247 69.2558 43.5374 66.8398 42.6759V21.1271L71 19.4118L35.5 5.1683L0 19.4118L35.5 33.6555L62.6797 22.7975V42.6759C60.2637 43.5374 58.5195 45.8247 58.5195 48.5329C58.5195 51.0124 59.9839 53.1407 62.0835 54.1465L58.6273 64.5154L62.5721 65.8317L64.7598 59.2685L66.9475 65.8317L70.8923 64.5154L67.436 54.1465C69.5356 53.1409 71 51.0125 71 48.5329Z" fill="white"/>
<path d="M35.5 38.1387L16.7793 30.6215V36.0525C16.7793 41.982 24.8274 46.4529 35.5 46.4529C46.1726 46.4529 54.2207 41.982 54.2207 36.0525V30.6215L35.5 38.1387Z" fill="white"/>
</svg>
