<svg width="40" height="46" viewBox="0 0 40 46" fill="none" xmlns="http://www.w3.org/2000/svg">
<path d="M19.6955 16.3627C18.5569 16.3627 17.7474 16.8434 17.7474 17.5519V27.1912C17.7474 27.7983 18.557 28.4056 19.6955 28.4056C20.7834 28.4056 21.6689 27.7983 21.6689 27.1912V17.5519C21.6689 16.8434 20.7834 16.3627 19.6955 16.3627Z" fill="#4A6BFF"/>
<path d="M19.6955 10.4171C18.5317 10.4171 17.6208 11.252 17.6208 12.2134C17.6208 13.1748 18.5317 14.0351 19.6955 14.0351C20.8341 14.0351 21.7449 13.1748 21.7449 12.2134C21.7449 11.2521 20.834 10.4171 19.6955 10.4171Z" fill="#4A6BFF"/>
<path d="M19.6953 0C8.809 0 0 8.80452 0 19.6839C0 28.5675 5.84888 35.9439 13.7345 38.449L18.2136 45.0511C18.5468 45.5423 19.1018 45.8364 19.6953 45.8364C20.2889 45.8364 20.8438 45.5423 21.177 45.0511L25.6561 38.449C33.5452 35.9427 39.3906 28.5637 39.3906 19.6839C39.3906 8.79763 30.5746 0 19.6953 0ZM24.0502 35.1919C23.6424 35.3059 23.2884 35.5607 23.0507 35.911L19.6953 40.8567L16.34 35.9111C16.1023 35.5608 15.7482 35.3059 15.3404 35.1919C8.62807 33.3151 3.58097 27.142 3.58097 19.6839C3.58097 10.8047 10.8099 3.58097 19.6953 3.58097C28.5808 3.58097 35.8097 10.8047 35.8097 19.6839C35.8097 27.1495 30.7551 33.3171 24.0502 35.1919Z" fill="#4A6BFF"/>
</svg>
