<svg width="51" height="51" viewBox="0 0 51 51" fill="none" xmlns="http://www.w3.org/2000/svg">
<path d="M48.0117 29.1108V4.58203C48.0117 3.75675 47.3429 3.08789 46.5176 3.08789H38.9473V1.49414C38.9473 0.668861 38.2784 0 37.4531 0C36.6278 0 35.959 0.668861 35.959 1.49414V3.08789H29.9824V1.49414C29.9824 0.668861 29.3136 0 28.4883 0C27.663 0 26.9941 0.668861 26.9941 1.49414V3.08789H21.0176V1.49414C21.0176 0.668861 20.3487 0 19.5234 0C18.6982 0 18.0293 0.668861 18.0293 1.49414V3.08789H12.0527V1.49414C12.0527 0.668861 11.3839 0 10.5586 0C9.73331 0 9.06445 0.668861 9.06445 1.49414V3.08789H1.49414C0.668861 3.08789 0 3.75675 0 4.58203V43.5293C0 44.3546 0.668861 45.0234 1.49414 45.0234H26.377C28.7926 48.6245 32.9003 51 37.5527 51C44.9674 51 51 44.9674 51 37.5527C51 34.3582 49.8794 31.4205 48.0117 29.1108ZM9.06445 6.07617V7.57031C9.06445 8.39559 9.73331 9.06445 10.5586 9.06445C11.3839 9.06445 12.0527 8.39559 12.0527 7.57031V6.07617H18.0293V7.57031C18.0293 8.39559 18.6982 9.06445 19.5234 9.06445C20.3487 9.06445 21.0176 8.39559 21.0176 7.57031V6.07617H26.9941V7.57031C26.9941 8.39559 27.663 9.06445 28.4883 9.06445C29.3136 9.06445 29.9824 8.39559 29.9824 7.57031V6.07617H35.959V7.57031C35.959 8.39559 36.6278 9.06445 37.4531 9.06445C38.2784 9.06445 38.9473 8.39559 38.9473 7.57031V6.07617H45.0234V12.0527H2.98828V6.07617H9.06445ZM2.98828 42.0352V15.041H45.0234V26.377C42.8853 24.9432 40.3149 24.1055 37.5527 24.1055C32.8314 24.1055 28.6712 26.5517 26.2712 30.2427C26.0693 30.1408 25.8416 30.082 25.5996 30.082H22.6113C21.786 30.082 21.1172 30.7509 21.1172 31.5762C21.1172 32.4015 21.786 33.0703 22.6113 33.0703H24.8747C24.5374 34.022 24.3039 35.0228 24.1891 36.0586H22.6113C21.786 36.0586 21.1172 36.7275 21.1172 37.5527C21.1172 38.378 21.786 39.0469 22.6113 39.0469H24.1891C24.3039 40.0827 24.537 41.0834 24.8747 42.0352H2.98828ZM37.5527 48.0117C31.7855 48.0117 27.0938 43.32 27.0938 37.5527C27.0938 31.7855 31.7855 27.0938 37.5527 27.0938C43.32 27.0938 48.0117 31.7855 48.0117 37.5527C48.0117 43.32 43.32 48.0117 37.5527 48.0117Z" fill="#4A6BFF"/>
<path d="M43.5293 36.0586H39.0469V31.5762C39.0469 30.7509 38.378 30.082 37.5527 30.082C36.7275 30.082 36.0586 30.7509 36.0586 31.5762V37.5527C36.0586 38.378 36.7275 39.0469 37.5527 39.0469H43.5293C44.3546 39.0469 45.0234 38.378 45.0234 37.5527C45.0234 36.7275 44.3546 36.0586 43.5293 36.0586Z" fill="#4A6BFF"/>
<path d="M13.5469 18.1289H10.5586C9.73331 18.1289 9.06445 18.7978 9.06445 19.623C9.06445 20.4483 9.73331 21.1172 10.5586 21.1172H13.5469C14.3722 21.1172 15.041 20.4483 15.041 19.623C15.041 18.7978 14.3722 18.1289 13.5469 18.1289Z" fill="#4A6BFF"/>
<path d="M13.5469 24.1055H10.5586C9.73331 24.1055 9.06445 24.7743 9.06445 25.5996C9.06445 26.4249 9.73331 27.0938 10.5586 27.0938H13.5469C14.3722 27.0938 15.041 26.4249 15.041 25.5996C15.041 24.7743 14.3722 24.1055 13.5469 24.1055Z" fill="#4A6BFF"/>
<path d="M13.5469 30.082H10.5586C9.73331 30.082 9.06445 30.7509 9.06445 31.5762C9.06445 32.4015 9.73331 33.0703 10.5586 33.0703H13.5469C14.3722 33.0703 15.041 32.4015 15.041 31.5762C15.041 30.7509 14.3722 30.082 13.5469 30.082Z" fill="#4A6BFF"/>
<path d="M22.6113 21.1172H25.5996C26.4249 21.1172 27.0938 20.4483 27.0938 19.623C27.0938 18.7978 26.4249 18.1289 25.5996 18.1289H22.6113C21.786 18.1289 21.1172 18.7978 21.1172 19.623C21.1172 20.4483 21.786 21.1172 22.6113 21.1172Z" fill="#4A6BFF"/>
<path d="M22.6113 27.0938H25.5996C26.4249 27.0938 27.0938 26.4249 27.0938 25.5996C27.0938 24.7743 26.4249 24.1055 25.5996 24.1055H22.6113C21.786 24.1055 21.1172 24.7743 21.1172 25.5996C21.1172 26.4249 21.786 27.0938 22.6113 27.0938Z" fill="#4A6BFF"/>
<path d="M13.5469 36.0586H10.5586C9.73331 36.0586 9.06445 36.7275 9.06445 37.5527C9.06445 38.378 9.73331 39.0469 10.5586 39.0469H13.5469C14.3722 39.0469 15.041 38.378 15.041 37.5527C15.041 36.7275 14.3722 36.0586 13.5469 36.0586Z" fill="#4A6BFF"/>
<path d="M34.5645 21.1172H37.5527C38.378 21.1172 39.0469 20.4483 39.0469 19.623C39.0469 18.7978 38.378 18.1289 37.5527 18.1289H34.5645C33.7392 18.1289 33.0703 18.7978 33.0703 19.623C33.0703 20.4483 33.7392 21.1172 34.5645 21.1172Z" fill="#4A6BFF"/>
</svg>
